<?xml version="1.0" encoding="UTF-8" standalone="no"?>
<!-- Created with Inkscape (http://www.inkscape.org/) -->

<svg
   width="1200"
   height="1200"
   viewBox="0 0 1200 1200"
   version="1.1"
   id="svg1"
   inkscape:version="1.4.2 (f4327f4, 2025-05-13)"
   sodipodi:docname="TECNM-logo.svg"
   xmlns:inkscape="http://www.inkscape.org/namespaces/inkscape"
   xmlns:sodipodi="http://sodipodi.sourceforge.net/DTD/sodipodi-0.dtd"
   xmlns="http://www.w3.org/2000/svg"
   xmlns:svg="http://www.w3.org/2000/svg">
  <sodipodi:namedview
     id="namedview1"
     pagecolor="#ffffff"
     bordercolor="#000000"
     borderopacity="0.25"
     inkscape:showpageshadow="2"
     inkscape:pageopacity="0.0"
     inkscape:pagecheckerboard="0"
     inkscape:deskcolor="#d1d1d1"
     inkscape:document-units="mm"
     inkscape:zoom="0.27197349"
     inkscape:cx="1332.8505"
     inkscape:cy="562.55483"
     inkscape:window-width="1920"
     inkscape:window-height="991"
     inkscape:window-x="-9"
     inkscape:window-y="-9"
     inkscape:window-maximized="1"
     inkscape:current-layer="svg1" />
  <defs
     id="defs1">
    <clipPath
       clipPathUnits="userSpaceOnUse"
       id="clipPath2">
      <rect
         style="fill:#999999;stroke:#1b1598;stroke-width:11.5909;stroke-linecap:round"
         id="rect2"
         width="600.36322"
         height="605.73956"
         x="292.11697"
         y="82.437935" />
    </clipPath>
  </defs>
  <path
     style="fill:#ffffff;fill-opacity:1;stroke:none;stroke-width:1.02708"
     d="m 752.45972,397.90655 c 1.82801,-23.16054 7.82659,-45.70308 16.49581,-67.20256 3.31744,-8.22717 6.56295,-18.04458 11.97983,-25.14988 4.67825,-6.13642 13.09362,-10.27282 19.38073,-14.58583 14.19471,-9.73774 28.75071,-18.93851 43.7835,-27.32466 64.73687,-36.11414 142.88041,-63.22216 217.89921,-63.27189 v -1.01821 c -64.31065,-12.47183 -127.31828,-15.11534 -191.42548,0.91147 -149.18954,37.29741 -270.44523,160.73877 -304.8031,310.66406 -12.13661,52.95989 -12.74541,107.45211 -3.46322,160.87886 3.52326,20.27903 12.04128,39.91471 15.01876,60.07503 31.11143,-9.94816 64.23944,-16.45834 95.71275,-4.2653 7.60943,2.94802 24.19692,9.13628 27.13213,17.54218 1.41062,4.0397 -2.05851,10.26002 -3.07194,14.21507 -2.58732,10.09719 -4.58591,21.12212 -4.71008,31.56484 -0.48929,41.14285 10.91754,90.37019 53.96178,106.84718 11.63497,4.45372 23.3345,5.1571 35.63773,5.1571 0,99.81349 119.12598,143.15659 203.64415,137.36859 11.76439,-0.8055 23.47762,-3.2438 34.61952,-7.0396 5.9538,-2.0282 12.1137,-6.0302 18.328,-6.9037 7.2462,-1.0183 15.0938,1.725 22.4008,1.8118 18.4028,0.2189 36.0761,-1.5041 53.9657,-5.9764 25.4752,-6.3688 48.2401,-18.6246 72.2937,-28.63908 v 37.67418 c 0,4.1902 1.2952,11.0619 -1.0465,14.7461 -3.028,4.7638 -11.3939,7.9344 -16.2633,10.4461 -15.4811,7.9855 -32.1535,13.7087 -48.8746,18.4484 -5.9978,1.6998 -19.556,2.623 -23.4819,7.708 -4.5428,5.8842 -4.8869,18.8301 -6.4786,26.0362 -3.8247,17.3162 -7.831,34.5948 -11.5728,51.9292 -1.9043,8.822 -2.7816,19.9835 -8.156,27.4771 -10.1712,14.1817 -29.8517,11.2152 -45.0052,11.2152 H 919.44792 c -14.00545,0 -33.70681,3.5869 -45.81994,-4.8875 -9.9274,-6.9453 -11.11913,-16.7475 -13.59272,-27.6956 -4.43091,-19.6108 -7.98175,-39.4203 -12.2949,-59.0567 -1.60948,-7.3277 -2.17241,-27.1002 -9.80982,-30.2819 -12.66593,-5.2763 -26.75129,-7.7778 -39.65088,-12.679 -4.3656,-1.6588 -11.56605,-6.0663 -16.29153,-4.9442 -6.88112,1.634 -14.10638,11.2288 -19.3462,15.7533 -14.71634,12.7074 -29.16353,25.7323 -43.78349,38.551 -6.82414,5.9834 -13.3123,13.9019 -22.40085,16.2453 -17.01648,4.3872 -30.21253,-8.2717 -42.76528,-17.6821 -24.65816,-18.4859 -49.6753,-36.493 -74.33012,-54.9839 -10.49156,-7.8689 -25.09952,-15.2991 -32.47615,-26.3459 -9.42924,-14.1205 -3.7138,-26.8031 2.36173,-40.72788 7.89518,-18.0955 16.54172,-35.86958 24.43727,-53.96573 2.8471,-6.52534 9.24442,-15.25534 9.65657,-22.40085 0.29794,-5.16556 -5.80976,-10.43192 -8.68943,-14.25509 -8.57818,-11.38874 -15.57087,-24.63543 -24.71783,-35.48297 -5.15996,-6.1194 -22.45356,-1.02196 -29.62896,-0.32764 -19.6527,1.90182 -39.36469,3.91066 -59.05679,5.35435 -7.84212,0.57498 -16.715,3.12712 -24.43729,1.00094 -16.12436,-4.43955 -19.20103,-25.10824 -23.44507,-38.76547 -9.82026,-31.60201 -20.63438,-62.93553 -29.93458,-94.69453 -3.84394,-13.12673 -10.78305,-26.76172 -9.65495,-40.72881 1.1732,-14.52556 14.27087,-19.60882 25.36043,-25.8877 l 48.87459,-27.79201 c 7.50976,-4.26937 17.89442,-8.15483 24.11363,-14.16869 4.59493,-4.44316 2.30094,-15.07308 1.63261,-20.73681 -1.47612,-12.51087 -1.16725,-30.53059 1.74572,-42.76527 -24.94641,-11.66168 -48.59182,-28.30843 -72.29368,-42.36143 -8.39832,-4.97936 -22.59847,-10.40967 -26.82723,-19.75078 -5.78068,-12.76913 3.10898,-29.64833 7.1416,-41.74629 l 33.26195,-99.78563 c 4.23012,-12.69046 6.58613,-32.2026 20.02498,-38.3333 10.65899,-4.86253 24.48153,-1.00169 35.63771,0.36929 26.35294,3.23835 54.62261,3.28945 80.43944,9.45383 6.39545,-13.51901 17.02276,-25.87514 26.11862,-37.67417 2.82981,-3.67077 10.23929,-9.75524 10.06042,-14.68725 -0.25618,-7.05981 -6.76846,-16.5011 -9.55216,-22.98691 -7.57812,-17.65641 -14.96992,-35.43102 -22.86523,-52.94748 -4.0873,-9.06814 -11.00764,-20.20581 -9.38311,-30.54662 2.35079,-14.96443 19.83777,-23.17744 31.07698,-31.13266 26.87086,-19.01956 53.67821,-38.13381 80.43944,-57.309592 11.38806,-8.16006 24.79731,-21.44652 39.71059,-21.445402 12.25396,8.71e-4 20.11584,10.553722 28.5102,17.957082 13.73225,12.11112 27.41695,24.412312 40.72883,36.982832 6.02169,5.68635 13.61199,15.37959 21.38264,18.45525 4.64923,1.84017 10.88844,-2.08069 15.27332,-3.55668 13.34431,-4.49176 29.01219,-6.84666 41.68813,-12.74977 7.517,-3.50063 8.18722,-21.316022 9.80899,-28.658702 4.80033,-21.73315 9.57889,-43.47549 14.5662,-65.166126 2.85288,-12.407701 6.29734,-23.4418213 20.48543,-26.0007983 14.17622,-2.556862 30.40461,-0.47294096 44.80171,-0.47294096 h 89.60344 c 15.2164,0 36.0918,-3.20045804 46.1743,11.20440626 4.805,6.864911 5.4327,17.42634 7.2053,25.451541 4.0518,18.344255 8.2999,36.646368 12.3726,54.983918 1.5545,6.99877 1.9697,21.738482 7.1158,26.918472 4.7451,4.77637 16.5423,5.64158 22.8447,7.70101 15.0137,4.90592 29.9915,9.70084 44.8017,15.22224 5.9892,2.23281 13.7697,4.03211 19.0225,7.7208 5.5814,3.91925 2.3602,23.66381 2.3602,30.00446 v 75.34833 c 0,6.88615 2.897,22.57759 -1.7741,28.06855 -2.509,2.94937 -6.9727,2.47223 -10.4446,2.47807 -8.8026,0.0154 -17.6794,-0.34505 -26.4737,0.0401 -33.9033,1.48472 -68.0861,3.22085 -101.8221,7.3774 -61.07632,7.52515 -121.2123,20.01762 -178.18861,43.92579 -40.68986,17.07422 -77.30511,40.02507 -116.07717,60.66107 m 210.7717,-30.54674 c -2.07821,-13.87537 -12.80925,-21.69685 -18.32798,-33.60127 18.05123,-2.66601 36.04853,-9.88726 53.9657,-13.82293 42.58146,-9.35328 87.74576,-16.20117 131.35046,-16.71971 13.3606,-0.15886 27.428,0.0708 40.7288,-1.1951 4.8826,-0.46473 12.7169,-2.89159 15.8265,2.36023 1.5907,2.68662 1.4717,6.00578 1.4825,9.01309 0.014,3.97244 0.4155,9.60137 -2.7514,12.62248 -2.3724,2.26316 -6.4683,1.56822 -9.4665,1.92334 -8.793,1.04145 -17.6523,1.86751 -26.4737,2.68773 -43.2395,4.02031 -85.949,11.33231 -128.2958,20.87353 -19.028,4.28717 -38.6996,14.1702 -58.03858,15.85861 m -207.71703,-39.7106 c -10.90865,28.1251 -18.32798,55.17781 -18.32798,85.53054 0,10.76701 0.73589,20.98675 2.85119,31.56484 0.67058,3.35334 3.17095,9.56582 1.15333,12.71756 -1.68437,2.6312 -6.34903,3.33693 -9.09562,4.25275 -7.87592,2.62596 -15.73775,5.33619 -23.41908,8.49628 -23.18676,9.53895 -47.50678,20.79384 -63.6718,40.71775 -8.5982,10.5976 -12.38023,25.55036 -7.70109,38.69239 1.76709,4.96306 5.61736,8.53641 7.78909,13.23687 1.70887,3.69863 1.18391,8.21101 -3.66351,8.50721 -10.97656,0.67083 -21.9846,-12.76058 -27.41813,-20.72587 -17.57177,-25.75942 -16.97129,-61.58669 -9.31089,-90.62164 17.97422,-68.12681 84.1475,-116.94622 150.81449,-132.36868 m 236.22721,86.54876 -1.01822,-38.69239 c 13.90362,-5.98365 30.07382,-8.53047 44.80172,-11.8628 32.7718,-7.41491 66.3953,-12.94725 99.7856,-16.69847 10.8683,-1.22095 21.7555,-2.75063 32.5831,-4.2976 4.6465,-0.66386 11.4759,-2.76369 16.0597,-1.433 7.0844,2.05659 5.0745,22.10864 2.6218,27.10541 -2.4833,5.05928 -8.7008,5.10179 -13.5904,5.9168 -11.5512,1.92519 -23.1089,3.81173 -34.6195,5.96475 -31.7131,5.93196 -63.3891,12.29772 -94.6945,20.12403 -17.3289,4.33216 -34.4484,10.25542 -51.9293,13.87327 m -83.4941,-71.84672 c 6.48574,1.02047 12.89288,3.16789 18.32797,6.9053 36.58024,25.15424 11.14294,81.92302 -31.56483,74.79201 -51.22745,-8.55357 -37.63167,-89.70086 13.23686,-81.69731 m -19.3462,18.29741 c -15.71834,-3.19611 -19.73978,21.75068 -4.07288,24.40423 15.46355,2.61913 19.41146,-21.28532 4.07288,-24.40423 m -47.85637,11.80226 c 0,15.22993 1.33952,28.69426 10.06985,41.74705 20.14578,30.12002 62.55985,37.0947 90.73318,14.15838 8.44516,-6.87535 14.72163,-15.35223 19.00371,-25.35881 4.46702,-10.43875 1.69502,-21.18539 15.61662,-22.40085 2.52006,31.92938 -6.98598,78.52739 -42.76528,90.45347 -5.6856,1.89512 -13.63603,-1.79818 -19.34618,-2.80087 -13.29846,-2.33523 -27.23169,-4.13676 -40.72885,-4.15852 -23.60047,-0.0379 -47.03124,0.90364 -70.25721,5.54838 -13.10408,2.62064 -25.66968,8.50213 -38.69239,10.74316 l -11.27663,-48.87461 -0.32764,-16.91223 21.78648,-12.3647 66.18434,-29.77985 m 115.05894,107.93141 c 2.32648,-8.30834 11.08279,-15.439 16.13672,-22.40085 5.1987,-7.16123 8.87437,-22.43044 15.82884,-27.35052 9.41767,-6.66268 27.17797,-7.75661 38.29167,-10.45566 31.9395,-7.75683 64.316,-14.19792 96.731,-19.63528 15.291,-2.56494 30.5798,-5.26999 45.8199,-8.12067 4.3264,-0.80928 13.1079,-3.97445 16.594,-0.2584 3.5039,3.73504 2.7519,10.23614 2.7522,14.90949 4e-4,6.29054 0.7797,15.86855 -3.7704,20.94499 -2.6589,2.96641 -7.8641,3.66521 -11.5029,4.84673 -9.1212,2.96171 -18.3883,5.46785 -27.492,8.48833 -30.1864,10.01541 -60.8891,18.61011 -91.6398,26.69536 -31.834,8.37012 -64.7964,16.50134 -97.74923,12.33648 m 31.56484,14.25509 c 14.17519,-6.11479 34.55399,-5.48909 49.89279,-8.55271 33.9337,-6.77752 67.5504,-15.50624 100.8039,-25.04857 11.1667,-3.20431 22.383,-6.29775 33.6013,-9.318 4.7887,-1.28917 9.8824,-3.20529 13.5912,1.32312 9.8203,11.9907 4.5308,39.94142 2.0741,53.81481 -0.7932,4.47932 -1.2925,14.8057 -6.6373,16.26318 -5.2219,1.42405 -11.8969,-0.53694 -17.1738,-0.89877 -13.9208,-0.95445 -27.8294,-2.10144 -41.7471,-3.05466 -22.2457,-1.52361 -44.9097,-3.10998 -67.2025,-3.14577 -10.7781,-0.0172 -26.4505,2.91272 -36.656,-0.59947 -10.4276,-3.58864 -20.94974,-14.88825 -30.54659,-20.78316 m -240.30009,-21.38264 9.16399,35.63773 c 19.90869,0.0138 36.19487,5.96252 52.94747,16.29153 v 1.01823 l -27.49195,7.65864 -16.29154,0.48712 c 3.59174,4.57329 7.52349,5.97495 13.23688,6.10931 l 2.467,11.68209 8.73344,-0.18309 22.40084,-7.42611 -16.29153,-4.07289 c 2.34481,-3.42567 6.35207,-4.15354 10.18221,-5.43054 3.59366,-1.1982 8.35594,-3.75182 12.21864,-2.97138 8.57266,1.73204 17.32479,13.14264 22.38594,19.60236 19.0042,24.25557 26.034,59.25479 15.59543,88.5852 -9.24105,25.96562 -30.75495,43.27697 -57.32757,49.22883 -7.28495,1.63174 -9.13079,-1.51814 -15.27721,-4.5135 -11.61004,-5.65789 -17.24872,-8.89676 -10.1783,-22.31448 -7.35656,-1.54274 -12.82359,-4.33737 -14.25509,-12.21866 3.80441,-3.72908 4.22253,-13.90804 -1.16906,-16.86824 -10.97471,-6.02542 -29.92744,3.60715 -33.92973,-13.67838 -5.00073,-21.5974 7.63647,-46.92938 15.9058,-66.18432 2.57772,-6.00219 8.05807,-13.83537 8.72168,-20.32043 1.15264,-11.26468 -22.76467,-6.16153 -27.88952,-9.96383 -7.83272,-5.81137 -15.90927,-29.12865 -8.75463,-37.50997 5.75235,-6.73862 26.28688,-11.37356 34.89681,-12.64522 m 252.51873,41.74706 v 1.01821 c -35.10767,0 -88.3906,-6.44021 -113.56459,24.43805 -6.3982,7.84794 -7.8377,16.17568 -10.65833,25.45477 -5.91182,-8.90284 -9.23521,-18.92956 -16.09589,-27.49196 -20.68945,-25.82157 -53.21272,-43.69101 -86.7444,-43.78349 16.78207,-10.56043 43.76652,-12.78594 63.12968,-14.34235 56.05528,-4.50592 116.84152,0.97783 163.93353,34.70677 m -46.83814,84.51231 c 10.56901,-17.1417 16.14492,-34.37142 4.61499,-52.94748 -3.54744,-5.7153 -9.4657,-9.51922 -12.76076,-15.27331 64.44116,0 129.10726,-6.99852 193.46196,1.4504 11.1472,1.46344 22.4326,1.97915 33.6013,3.35085 4.401,0.54055 9.4563,0.19762 12.8102,3.65327 4.9285,5.07792 4.5298,14.54443 4.4987,21.07388 -0.023,4.89087 -0.2892,10.91703 -3.1442,15.12242 -3.2583,4.79938 -11.1837,3.20555 -16.2012,3.20555 h -44.8017 c -57.7662,0.0928 -115.4619,9.38449 -172.07929,20.36442 m -27.49196,-59.60207 c 37.18556,6.70668 28.04949,65.64626 -9.164,59.12824 -38.79342,-6.79468 -29.63062,-66.12516 9.164,-59.12824 m -4.07288,14.20872 c -18.73996,-1.91092 -22.26481,28.19422 -3.05467,30.0124 19.9627,1.8894 23.08983,-27.96937 3.05467,-30.0124 m 4.94027,10.51146 c 2.93316,1.32697 4.41525,6.12312 1.57288,8.37995 -2.5443,2.02015 -11.50986,1.82214 -14.33526,0.43203 -2.78345,-1.36948 -3.13129,-6.46231 -0.7275,-8.36726 2.72324,-2.15812 10.47182,-1.8101 13.48988,-0.44472 m -44.65088,25.7179 c 5.27562,9.12682 13.73615,16.31167 23.41908,20.36442 -4.23045,17.81064 -17.90296,36.09536 -30.55054,48.87459 -5.12827,5.18171 -10.0742,10.35087 -17.30585,12.21864 -1.28158,-7.9096 8.73206,-17.40122 12.2501,-24.43729 5.54808,-11.09616 9.36354,-23.31019 10.87752,-35.63772 0.83544,-6.80252 -1.35295,-15.0374 1.30969,-21.38264 m 163.93354,7.12755 c 10.1231,-2.99364 22.074,-2.42189 32.5831,-3.14578 22.4362,-1.54535 44.6649,-1.94533 67.2025,-1.94533 10.1363,0 28.5645,-1.83246 37.5634,3.23699 5.2759,2.97215 4.1837,9.98434 4.1837,15.09099 v 42.76527 c 0,4.41953 1.9306,14.39578 -3.2055,16.53825 -3.8108,1.58961 -7.8873,-1.0345 -11.0496,-2.89917 -7.8669,-4.63879 -15.5855,-9.5503 -23.4191,-14.25038 -24.0032,-14.40149 -48.5379,-27.81125 -73.3119,-40.80959 -9.8358,-5.16061 -21.3417,-8.39648 -30.5466,-14.58125 m -27.492,3.05466 c 21.5154,-5.13734 37.5536,10.39947 54.984,21.33154 24.9117,15.62432 49.8615,31.25734 74.3301,47.56801 11.4984,7.66476 27.0758,15.19911 35.963,25.88694 6.8054,8.1843 9.8204,19.2121 11.8894,29.43643 5.3537,26.45671 3.3445,55.20193 -2.247,81.45764 -1.2827,6.02283 -4.1328,24.29214 -11.9531,25.27629 -5.6779,0.71457 -11.6695,-14.15924 -14.1136,-18.14872 -12.7215,-20.76453 -25.5785,-41.44104 -38.4536,-62.11148 -13.7445,-22.066 -27.9721,-43.98907 -43.0528,-65.16612 -13.6068,-19.10742 -27.3653,-38.04841 -42.4919,-56.00213 -7.8241,-9.28643 -19.7226,-18.52151 -24.8545,-29.5284 m 33.6013,392.01495 c 0,-91.0758 -9.536,-183.36547 -31.9459,-271.86491 -6.5493,-25.86458 -14.7749,-51.2552 -23.74274,-76.36655 -4.57846,-12.82048 -11.43107,-25.45241 -14.56857,-38.6924 5.41743,-0.42818 14.29791,-4.0986 19.25511,-1.24915 10.6808,6.13966 20.0532,24.06143 27.451,33.83222 21.6448,28.5875 42.2234,58.20675 61.2764,88.58521 31.9278,50.90631 63.8746,103.6717 87.948,158.84242 5.3907,12.35438 11.6462,24.36135 17.1888,36.65594 2.1247,4.71326 6.3181,10.93737 5.1052,16.29153 -3.6501,16.11299 -20.2098,29.21158 -33.9266,36.48539 -35.4703,18.8096 -75.315,17.4803 -114.0407,17.4803 M 967.3043,608.67824 c 39.1327,94.11631 45.8199,199.56031 45.8199,300.3751 0,23.54143 -0.9679,46.80571 -1.9963,70.25718 -0.2499,5.6989 1.4598,21.83498 -3.5363,25.44218 -3.9911,2.8814 -12.11812,2.7025 -16.86822,3.1442 -13.54382,1.2593 -27.1442,2.8356 -40.72883,1.2328 -47.83438,-5.6441 -100.64463,-14.44708 -128.48518,-59.34754 -6.06234,-9.77713 -16.23398,-29.49098 -13.6509,-41.53016 0.99821,-4.65233 10.14107,-7.61863 13.84028,-9.83816 12.4272,-7.45643 23.63296,-16.17494 34.61948,-25.58826 27.78568,-23.80711 47.66386,-56.35041 61.09325,-90.0316 14.62337,-36.67558 19.62928,-75.93153 21.34255,-115.05894 0.52129,-11.9053 -0.0226,-24.79938 -1.15097,-36.65595 -0.37257,-3.9149 -2.53207,-11.07787 0.20112,-14.52145 4.25678,-5.36331 22.87068,-6.51179 29.50012,-7.8794 m -37.67417,8.14575 c 0.3116,15.09607 1.27446,29.66625 -0.17282,44.80172 -7.36414,77.0135 -47.67858,166.66614 -117.94079,205.36312 -12.11387,6.67177 -32.40356,19.05275 -46.83814,15.91207 -15.11322,-3.28834 -26.62998,-18.21052 -33.88648,-30.86793 -16.33031,-28.48482 -26.84835,-66.18869 -13.96989,-97.74917 15.78994,6.47784 31.58945,11.83021 48.87458,12.16358 51.62151,0.9956 101.29091,-36.80062 129.28805,-77.32972 11.23425,-16.26281 20.62048,-33.87012 26.06445,-52.94746 1.73435,-6.07753 1.27682,-18.1275 8.58104,-19.34621 m -11.20043,1.01823 c -14.00917,54.12579 -52.7399,106.43004 -107.9314,124.02493 -25.57271,8.15247 -63.24938,7.08912 -80.43942,-17.11176 11.18263,-3.78575 23.35593,-2.17365 34.6195,-6.58152 9.15391,-3.5823 16.00919,-13.26285 25.45553,-15.41787 6.86868,-1.56698 14.39179,0.14395 21.38261,-0.69219 19.90912,-2.38111 37.07296,-9.77601 52.94748,-21.99542 14.43339,-11.11004 25.44955,-23.88988 34.1756,-39.82531 5.58908,-10.20671 6.40551,-22.39055 19.7901,-22.40086"
     id="path2"
     sodipodi:nodetypes="cssscccssscssssscssssscsscssssssssssssssscssssssssssssssccsscssccsscsssssssssssssssssssssssssssscssscccsssscssssccssssssssssscccssssscssccssccsccssscssssccccccsssssssssssccssssssssssccccccccccccssssssccsssssscccscccsccscsssssscccsccsccssscccscssccsssssssssccssssssssssccsscsssssssccsssssssssssssccsssscsssccscsssssc" />
</svg>
